<svg width="120" height="120" viewBox="0 0 120 120" fill="none" xmlns="http://www.w3.org/2000/svg"><path d="m6.646 90.482 41.8 24.291c.886.517 2.314.517 3.2.009l63.513-36.675c.886-.508.886-1.337 0-1.854l-41.8-24.291c-.877-.509-2.305-.509-3.19 0L6.654 88.628c-.886.517-.894 1.345-.009 1.854Z" fill="#AABAFD"/><path d="M56.041 92.95c-.5.289-.496.759 0 1.047l10.304 5.988c.496.288 1.307.292 1.807.003l20.305-11.723c.5-.288.496-.758 0-1.046L78.153 81.23c-.496-.289-1.307-.292-1.807-.004L56.041 92.95Z" fill="#2E4277"/><path d="m5.99 89.563.008 2.445c0 .328.222.665.657.919l41.8 24.291c.886.509 2.313.509 3.199 0l63.513-36.666c.443-.254.665-.59.665-.935l-.008-2.437c0 .336-.222.673-.665.927l-63.513 36.674c-.886.509-2.314.509-3.2-.008l-41.8-24.291c-.442-.254-.656-.583-.656-.919Z" fill="#798FFE"/><path d="M70.045 3.594c.885-.51 1.605-.1 1.608.917l.113 44.684c.003 1.011-.713 2.256-1.598 2.767L7.57 88.1c-.885.51-1.605.095-1.608-.916L5.85 42.498c-.003-1.017.712-2.256 1.597-2.767L70.045 3.594Z" fill="#1B2A4F"/><path d="m4.168 41.525.115 44.683c0 .5.18.861.467 1.025l1.68.977c-.288-.164-.468-.525-.468-1.026l-.115-44.683c0-1.017.714-2.256 1.6-2.772L70.044 3.595c.443-.254.845-.279 1.14-.115l-1.678-.976c-.288-.164-.698-.14-1.14.115L5.766 38.76c-.885.508-1.599 1.747-1.599 2.764Z" fill="#384E85"/><path d="m8.108 41.954.11 43.168L69.506 49.74l-.11-43.168L8.109 41.954Z" fill="#384E85"/><path d="m8.108 41.954.019 7.24 61.289-35.382-.018-7.24-61.29 35.382Z" fill="#AABAFD"/><path d="M59.292 15.138c.591-.341 1.071-.08 1.073.6.002.679-.475 1.505-1.066 1.847-.58.335-1.061.061-1.063-.618-.002-.679.475-1.494 1.056-1.829Zm3.413-1.971c.58-.335 1.06-.073 1.063.606.002.679-.476 1.506-1.056 1.84-.591.342-1.072.068-1.073-.61-.002-.68.475-1.495 1.066-1.836Zm3.403-1.964c.59-.341 1.07-.08 1.073.6.002.679-.476 1.505-1.067 1.846-.59.342-1.07.068-1.073-.611-.002-.679.476-1.494 1.067-1.835Z" fill="#fff"/><path d="m19.465 87.483-4.012 2.332-1.728-.998 4.011-2.332 1.729.998Zm43.169-25.087-4.017 2.335-1.729-.998 4.018-2.335 1.728.998Zm10.793-6.272-4.018 2.335-1.728-.998 4.017-2.335 1.729.998Zm-7.201 14.6-4.012 2.332-3.567-2.06 4.012-2.331 3.567 2.06Zm19.789-1.078-4.018 2.335-3.573-2.063 4.018-2.335 3.573 2.063Zm5.399-3.138-4.018 2.335-8.07-4.66 4.017-2.334 8.07 4.66ZM77.925 58.72l-7.408 4.306-3.573-2.063 7.408-4.305 3.573 2.063Zm-8.784 5.105-4.017 2.335-3.573-2.063 4.017-2.335 3.573 2.063Zm13.276-2.51-9.416 5.472-3.568-2.06 9.417-5.472 3.567 2.06Zm-10.792 6.271-4.018 2.335-3.567-2.06 4.017-2.335 3.568 2.06Zm4.498 2.597-4.017 2.335-3.573-2.063 4.017-2.335 3.573 2.063Zm-12.381-3.22-4.017 2.335-3.573-2.063 4.017-2.335 3.573 2.063Zm-6.507-1.43-4.012 2.332-1.728-.998 4.012-2.332 1.728.998Zm-5.393 3.135-4.017 2.334-1.729-.997 4.018-2.335 1.728.998Zm2.696 14.059-4.017 2.335-3.573-2.063 4.017-2.335 3.573 2.063Zm-8.095-10.922-4.012 2.331-1.728-.997 4.012-2.332 1.728.998Zm6.507 1.43-4.012 2.331-3.573-2.063 4.012-2.331 3.573 2.063Zm-11.9 1.705-4.018 2.334-1.728-.998 4.017-2.335 1.729.998Zm6.507 1.429-4.018 2.335-3.573-2.063 4.018-2.335 3.573 2.063Zm7.877.627-4.012 2.331-3.568-2.06 4.012-2.331 3.568 2.06Zm-19.778 1.077-4.017 2.335-1.729-.998 4.018-2.334 1.728.998Zm6.507 1.43-4.017 2.335-3.573-2.063 4.017-2.335 3.573 2.063Zm17.769.09-4.012 2.331-3.573-2.063 4.012-2.331 3.573 2.063Zm-9.892.537-4.017 2.335-3.568-2.06 4.018-2.335 3.567 2.06Zm-19.783 1.081-4.017 2.335-1.728-.998 4.017-2.335 1.728.998Zm6.507 1.43-4.017 2.335-3.573-2.063 4.017-2.335 3.573 2.063Zm7.883.623L40.629 85.6l-3.567-2.06 4.017-2.334 3.568 2.06ZM31.37 85.775l-4.017 2.335-3.573-2.063 4.018-2.335 3.573 2.063Zm17.775.086-4.018 2.335-3.573-2.063 4.018-2.335 3.573 2.063Zm-9.897.541-4.018 2.335-3.567-2.06 4.018-2.335 3.567 2.06Zm4.498 2.597-4.018 2.335-3.572-2.063 4.017-2.335 3.573 2.063Zm20.915-6.944L44.227 93.931l-3.573-2.063 20.434-11.875 3.573 2.063ZM38.352 92.133l-4.017 2.335-3.573-2.063 4.017-2.335 3.573 2.063Zm-4.497-2.597-9.411 5.47-3.568-2.06 9.411-5.47 3.568 2.06Zm-.901 5.734-4.012 2.332-3.573-2.062 4.012-2.332 3.573 2.063Zm9.896-.54-9.41 5.469-3.573-2.062 9.41-5.47 3.574 2.063ZM24.864 84.346l-4.018 2.334-1.728-.998 4.017-2.334 1.729.998Zm43.164-25.085-4.018 2.335-1.728-.998 4.017-2.334 1.729.997Zm-9.679 10.836-4.018 2.335-3.573-2.063 4.018-2.335 3.573 2.063Zm11.48 8.955-4.018 2.335-3.573-2.063 4.018-2.335 3.573 2.063Zm-4.499-2.597-4.017 2.335-3.573-2.063 4.018-2.334 3.573 2.062Zm-4.497-2.597-4.018 2.335-3.567-2.06 4.017-2.335 3.568 2.06Zm19.788-1.078-4.017 2.335-3.573-2.063 4.017-2.335 3.573 2.063Zm-5.399 3.138-4.012 2.331-3.573-2.063 4.012-2.331 3.573 2.063Zm-49.25 12.994-6.021 3.5-3.573-2.063 6.02-3.5 3.574 2.063Z" fill="#384E85"/><path d="M13.806 53.364c.778-.45 1.237-.351 1.566-.054l-.442.716c-.282-.284-.645-.261-1.088-.005-.9.52-1.472 1.652-1.47 2.74.004 1.085.58 1.563 1.481 1.043.443-.256.804-.664 1.084-1.264l.444.209c-.326.68-.783 1.307-1.56 1.756-1.271.734-2.13.104-2.134-1.348-.004-1.451.848-3.06 2.119-3.793Zm2.864 2.357c.262-.151.487-.023.487.277.001.306-.221.687-.483.838-.266.154-.486.028-.487-.277 0-.301.218-.685.484-.838Zm.333-3.2c.19-.327.19-.68.001-.79-.189-.11-.496.065-.686.392-.19.327-.19.68-.001.79.19.11.496-.065.686-.392Zm1.141-3.612 2.112 5.961-.52.3-2.112-5.961.52-.3Zm4.115-3.063 3.686 2.105-3.662 6.347-.591-.337 3.082-5.334-3.102-1.764.587-1.017Zm7.801 2.114.005 1.584-3.855 2.225-.005-1.584 3.855-2.226Z" fill="#D9DDF6"/></svg>