<?xml version="1.0" standalone="no"?>
<!DOCTYPE svg PUBLIC "-//W3C//DTD SVG 20010904//EN"
 "http://www.w3.org/TR/2001/REC-SVG-20010904/DTD/svg10.dtd">
<svg version="1.0" xmlns="http://www.w3.org/2000/svg"
 width="900.000000pt" height="600.000000pt" viewBox="0 0 900.000000 600.000000"
 preserveAspectRatio="xMidYMid meet">
<metadata>
Created by potrace 1.10, written by Peter Selinger 2001-2011
</metadata>
<g transform="translate(0.000000,600.000000) scale(0.100000,-0.100000)"
fill="#000000" stroke="none">
<path d="M4340 3755 c-19 -7 -45 -14 -57 -14 -21 -1 -51 -12 -133 -50 -65 -30
-157 -98 -219 -161 -73 -76 -116 -138 -172 -252 -32 -64 -79 -274 -79 -351 0
-55 28 -211 47 -262 39 -105 91 -190 155 -255 59 -61 172 -140 199 -140 6 0
23 -6 37 -14 92 -47 323 -61 481 -27 104 22 131 46 131 119 0 26 7 74 15 107
16 68 19 141 6 149 -5 3 -42 -3 -82 -14 -97 -26 -300 -28 -356 -4 -79 34 -100
46 -141 82 -90 80 -128 214 -106 367 26 173 126 288 312 359 58 22 226 22 284
0 65 -24 110 -47 145 -72 43 -32 40 -39 88 188 26 121 26 126 2 147 -36 32
-113 63 -226 93 -89 24 -275 27 -331 5z"/>
<path d="M5465 3752 c-131 -32 -285 -122 -371 -214 -36 -39 -118 -146 -127
-168 -4 -8 -11 -22 -16 -30 -12 -20 -36 -75 -54 -125 -36 -98 -42 -142 -42
-300 0 -159 10 -226 41 -287 8 -14 14 -31 14 -36 0 -24 79 -141 131 -193 55
-55 141 -112 209 -137 55 -21 209 -52 255 -52 77 0 233 39 320 81 211 101 398
353 436 589 29 177 29 218 0 375 -27 151 -110 287 -230 379 -59 45 -179 106
-209 106 -9 0 -39 7 -66 15 -62 19 -210 18 -291 -3z m254 -329 c67 -22 168
-116 190 -178 8 -23 16 -93 18 -162 3 -101 1 -133 -16 -185 -58 -186 -145
-290 -286 -340 -87 -32 -198 -17 -277 36 -41 27 -93 103 -117 171 -25 72 -28
217 -6 280 8 22 15 48 15 58 0 17 14 49 41 97 5 8 13 24 18 36 13 29 120 144
135 144 7 0 17 5 24 12 20 20 106 46 156 47 27 1 74 -7 105 -16z"/>
<path d="M1721 3705 c-12 -20 -21 -42 -21 -49 0 -8 -7 -19 -15 -26 -8 -7 -15
-19 -15 -26 0 -8 -13 -40 -29 -71 -27 -55 -68 -141 -148 -313 -19 -41 -39 -82
-44 -90 -5 -8 -12 -22 -15 -30 -3 -8 -18 -42 -34 -75 -41 -89 -93 -198 -140
-300 -23 -49 -46 -97 -51 -105 -5 -8 -12 -22 -15 -30 -6 -16 -43 -97 -93 -200
-17 -36 -31 -70 -31 -76 0 -7 -7 -17 -15 -24 -8 -7 -15 -21 -15 -31 0 -18 11
-19 178 -19 161 0 181 2 195 18 10 10 17 24 17 30 0 6 7 28 16 49 9 21 23 52
30 68 44 104 56 123 77 129 12 3 128 6 258 6 173 0 240 -3 252 -13 10 -6 21
-35 26 -62 15 -81 32 -168 40 -195 l6 -25 710 0 710 0 3 40 c1 22 9 76 18 120
9 44 14 103 12 130 l-3 50 -497 3 c-308 1 -506 -2 -522 -8 -22 -8 -26 -16 -26
-47 0 -21 -5 -56 -11 -78 -6 -22 -14 -71 -18 -110 -3 -38 -10 -70 -15 -70 -10
0 -33 68 -45 135 -5 25 -14 68 -21 95 -6 28 -18 75 -25 105 -7 30 -19 78 -25
105 -7 28 -16 68 -20 90 -4 22 -13 63 -20 90 -6 28 -18 75 -25 105 -7 30 -19
78 -25 105 -7 28 -16 68 -20 90 -4 22 -13 63 -20 90 -6 28 -18 75 -25 105 -7
30 -19 78 -25 105 -7 28 -16 70 -21 95 -5 25 -15 68 -23 95 l-13 50 -200 3
-201 2 -21 -35z m190 -398 c10 -69 27 -150 45 -213 8 -28 14 -61 14 -74 0 -13
7 -47 16 -76 27 -84 27 -84 -144 -84 -164 0 -180 5 -158 49 7 14 20 42 28 61
8 19 22 51 30 70 9 19 30 71 48 115 17 44 38 92 46 107 8 14 14 33 14 41 0 18
40 70 48 62 3 -3 9 -29 13 -58z"/>
<path d="M2712 3678 c-7 -35 -17 -99 -22 -143 -5 -44 -12 -90 -15 -101 -4 -13
-2 -25 6 -30 19 -11 999 -12 1026 0 17 7 23 20 28 55 3 25 10 78 17 116 6 39
13 91 16 118 l4 47 -524 0 -523 0 -13 -62z"/>
<path d="M6632 3728 c-6 -6 -12 -23 -12 -37 -1 -15 -7 -37 -15 -51 -8 -14 -14
-34 -15 -45 0 -11 -7 -33 -15 -49 -8 -15 -15 -37 -15 -47 0 -10 -6 -33 -14
-51 -7 -18 -21 -60 -31 -93 -9 -33 -22 -71 -27 -85 -6 -14 -14 -41 -18 -60 -5
-19 -13 -50 -19 -67 -27 -80 -33 -100 -41 -128 -5 -16 -13 -45 -19 -62 -29
-86 -38 -115 -71 -228 -4 -16 -13 -43 -18 -60 -6 -16 -15 -46 -22 -65 -10 -32
-26 -83 -50 -165 -4 -16 -13 -45 -19 -62 -6 -18 -16 -48 -22 -65 -22 -66 -31
-63 161 -66 169 -3 176 -2 193 19 9 12 17 32 17 45 0 13 6 38 14 56 7 18 19
53 25 78 6 25 18 68 27 95 8 28 19 66 24 85 4 19 13 49 18 65 6 17 18 57 27
90 9 33 21 74 27 90 5 17 14 46 18 65 17 67 33 125 40 145 7 18 9 17 20 -10 6
-16 16 -55 22 -85 5 -30 14 -75 20 -100 5 -25 14 -72 18 -105 8 -58 16 -99 45
-250 23 -118 38 -198 44 -240 l6 -40 96 -3 96 -3 200 403 c110 222 203 411
206 421 7 20 26 23 29 5 1 -7 2 -195 2 -418 l1 -405 180 0 179 0 -2 410 c-3
434 -19 1062 -28 1076 -3 5 -78 9 -168 9 l-162 0 -68 -132 c-78 -153 -83 -162
-96 -185 -6 -10 -13 -25 -16 -33 -3 -8 -9 -22 -14 -30 -5 -8 -41 -79 -80 -158
-40 -78 -76 -145 -81 -148 -5 -3 -9 -13 -9 -23 0 -10 -7 -24 -15 -31 -8 -7
-15 -20 -15 -29 0 -10 -11 -28 -24 -40 -21 -19 -24 -20 -30 -6 -3 9 -6 32 -6
50 0 19 -5 46 -10 61 -6 14 -15 54 -20 88 -5 33 -14 79 -19 101 -6 22 -17 76
-26 120 -9 44 -21 100 -27 125 -6 25 -15 68 -19 95 -5 28 -15 77 -22 110 l-14
60 -164 3 c-120 2 -168 -1 -177 -10z"/>
<path d="M2637 3163 c-4 -3 -7 -19 -7 -34 0 -15 -6 -56 -14 -91 -8 -35 -16
-99 -18 -143 l-3 -80 447 -3 447 -2 16 24 c9 13 18 48 21 77 3 30 12 93 21
140 9 47 13 94 10 103 -6 14 -48 16 -460 16 -250 0 -457 -3 -460 -7z"/>
</g>
</svg>
